<svg version="1.2" xmlns="http://www.w3.org/2000/svg" viewBox="0 0 200 200" width="200" height="200">
	<title>icon-svg</title>
	<defs>
		<clipPath clipPathUnits="userSpaceOnUse" id="cp1">
			<path d="m0 0h200v200h-200z"/>
		</clipPath>
	</defs>
	<style>
		tspan { white-space:pre } 
		.s0 { fill: #33ab3e } 
		.t1 { font-size: 150px;fill: #1f4b1f;font-weight: 400;font-family: "DejaVuSans", "DejaVu Sans" } 
	</style>
	<g id="Clip-Path" clip-path="url(#cp1)">
		<g id="Layer">
			<path id="Layer" fill-rule="evenodd" class="s0" d="m175 16.7v8.3h8.3v33.3h-41.6v8.4h25v8.3h-41.7v16.7h16.7v16.6h-8.4v-8.3h-8.3v25h-8.3v8.3h-8.4v8.4h-8.3v33.3h8.3v8.3h-16.6v-25h-8.4v-8.3h-8.3v8.3h-8.3v8.4h-8.4v8.3h8.4v8.3h-16.7v-33.3h-8.3v-8.3h-8.4v-8.4h-8.3v-8.3h-8.3v-50h8.3v16.7h8.3v8.3h8.4v8.3h16.6v-8.3h8.4v-8.3h8.3v-8.4h16.7v-8.3h8.3v-50h8.3v-8.3zm-58.3 16.6h8.3v-8.3h-8.3z"/>
		</g>
		<text id="." style="transform: matrix(1,0,0,1,148,51)" >
			<tspan x="0" y="0" class="t1">.
</tspan>
		</text>
		<text id="." style="transform: matrix(1,0,0,1,-3,84)" >
			<tspan x="0" y="0" class="t1">.
</tspan>
		</text>
	</g>
</svg>