<svg width="32" height="32" viewBox="0 0 200 200" fill="none" xmlns="http://www.w3.org/2000/svg">
  <g opacity="1" clip-path="url(#clip0_1860_37159)">
    <path d="M108.334 16.666V24.9993H100V74.9993H91.667V83.3327H75.0003V91.666H66.667V99.9993H58.3337V108.333H41.667V99.9993H33.3337V91.666H25.0003V74.9993H16.667V124.999H25.0003V133.333H33.3337V141.666H41.667V149.999H50.0003V183.333H66.667V174.999H58.3337V166.666H66.667V158.333H75.0003V149.999H83.3337V158.333H91.667V183.333H108.334V174.999H100V141.666H108.334V133.333H116.667V124.999H125V99.9993H133.334V108.333H141.667V91.666H125V74.9993H166.667V66.666H141.667V58.3327H183.334V24.9993H175V16.666H108.334ZM116.667 24.9993H125V33.3327H116.667V24.9993Z" fill="#33ab3e"/>
  </g>
  <defs>
    <clipPath id="clip0_1860_37159">
      <rect width="200" height="200" fill="white"/>
    </clipPath>
  </defs>
</svg>